<?xml version="1.0" encoding="utf-8"?>
<!-- Generator: Adobe Illustrator 26.3.1, SVG Export Plug-In . SVG Version: 6.00 Build 0)  -->
<svg version="1.1" id="Layer_1" xmlns="http://www.w3.org/2000/svg" xmlns:xlink="http://www.w3.org/1999/xlink" x="0px" y="0px"
	 viewBox="0 0 116.4 116.4" style="enable-background:new 0 0 116.4 116.4;" xml:space="preserve">
<style type="text/css">
	.st0{fill:#FE7568;}
	.st1{fill:#69BE94;}
</style>
<g>
	<g>
		<g>
			<path class="st0" d="M76.8,31.5c0-1.2-1-2.3-2.3-2.3H59.8c-1.2,0-2.3,1-2.3,2.3v51.1c0,2.5,2,4.5,4.5,4.5h10.6
				c2.6,0,4.9-1.5,6.1-3.8l26.1-52.2c0.5-0.9-0.2-2-1.2-2H89.3c-1.7,0-3.3,1-4,2.5L73.6,55.1c-0.2,0.3-0.5,0.2-0.4-0.2l3-10.1
				c0.4-1.4,0.6-2.9,0.6-4.4C76.8,40.4,76.8,31.5,76.8,31.5z"/>
			<path class="st0" d="M40.8,29.2H13.7c-1.2,0-2.3,1-2.3,2.3v12.3c0,1.2,1,2.3,2.3,2.3h19.4c2.5,0,4.5,2,4.5,4.5v18
				c0,2.5-2,4.5-4.5,4.5h-7.4c-0.1,0-0.2,0-0.4,0h0.1c3.4,0.5,5.9,3.4,5.9,7s-2.7,6.6-6.2,7c0.2,0,0.3,0.1,0.5,0.1h15.1
				c8.2,0,14.9-6.7,14.9-14.9v-28C55.7,35.9,49,29.2,40.8,29.2z"/>
			<path class="st1" d="M23.6,83.6L23.6,83.6c-1.9,0-3.5-1.6-3.5-3.5l0,0c0-1.9,1.6-3.5,3.5-3.5l0,0c1.9,0,3.5,1.6,3.5,3.5l0,0
				C27.2,82,25.6,83.6,23.6,83.6z"/>
		</g>
		<path class="st0" d="M31.4,65h-4.5c-1.2,0-2.1-0.9-2.1-2.1V52.3c0-1.2,0.9-2.1,2.1-2.1h4.5c1.2,0,2.1,0.9,2.1,2.1v10.6
			C33.5,64.1,32.5,65,31.4,65z"/>
	</g>
</g>
</svg>
