<?xml version="1.0" encoding="utf-8"?>
<!-- Generator: Adobe Illustrator 26.3.1, SVG Export Plug-In . SVG Version: 6.00 Build 0)  -->
<svg version="1.1" id="Layer_1" xmlns="http://www.w3.org/2000/svg" xmlns:xlink="http://www.w3.org/1999/xlink" x="0px" y="0px"
	 viewBox="0 0 669.8 98" style="enable-background:new 0 0 669.8 98;" xml:space="preserve">
<style type="text/css">
	.st0{fill:#FE7568;}
	.st1{fill:#69BE94;}
	.st2{fill:#3C3B3E;}
</style>
<g>
	<g>
		<g>
			<g>
				<path class="st0" d="M97.9,12.4c0-1.9-1.5-3.4-3.4-3.4H72.4c-1.9,0-3.4,1.5-3.4,3.4v76.5c0,3.7,3,6.8,6.8,6.8h15.8
					c3.8,0,7.4-2.2,9.1-5.6L139.8,12c0.7-1.4-0.3-2.9-1.8-2.9h-21.4c-2.6,0-4.9,1.4-6.1,3.7L93,47.7c-0.3,0.5-0.7,0.3-0.6-0.2
					l4.5-15.1c0.6-2.1,1-4.4,1-6.6V12.4z"/>
				<path class="st0" d="M43.9,9H3.4C1.5,9,0,10.5,0,12.4v18.4c0,1.9,1.5,3.4,3.4,3.4h29c3.7,0,6.8,3,6.8,6.8v26.9
					c0,3.7-3,6.8-6.8,6.8H21.3c-0.2,0-0.4,0-0.5,0.1c0,0,0.1,0,0.1,0.1c5,0.8,8.9,5.2,8.9,10.4c0,5.4-4,9.8-9.2,10.5
					c0.2,0.1,0.5,0.1,0.8,0.1H44c12.3,0,22.3-10,22.3-22.3v-42C66.3,19,56.3,9,43.9,9z"/>
				<path class="st1" d="M18.2,90.4L18.2,90.4c-2.9,0-5.3-2.4-5.3-5.3l0,0c0-2.9,2.4-5.3,5.3-5.3l0,0c2.9,0,5.3,2.4,5.3,5.3l0,0
					C23.5,88,21.2,90.4,18.2,90.4z"/>
			</g>
			<path class="st0" d="M29.8,62.5h-6.7c-1.7,0-3.1-1.4-3.1-3.1V43.5c0-1.7,1.4-3.1,3.1-3.1h6.7c1.7,0,3.1,1.4,3.1,3.1v15.9
				C33,61.1,31.6,62.5,29.8,62.5z"/>
		</g>
		<g>
			<path class="st2" d="M146.8,44.8c2.6-5.2,6.2-9.3,10.7-12.1c4.5-2.8,9.6-4.2,15.1-4.2c4.4,0,8.5,0.9,12.2,2.8
				c3.7,1.9,6.6,4.4,8.7,7.5V7.4h20.7V97h-20.7v-9.7c-1.9,3.2-4.7,5.8-8.3,7.8c-3.6,1.9-7.8,2.9-12.5,2.9c-5.6,0-10.6-1.4-15.1-4.3
				s-8.1-6.9-10.7-12.2c-2.6-5.3-3.9-11.4-3.9-18.3C142.8,56.2,144.2,50.1,146.8,44.8z M189.2,51c-2.9-3-6.4-4.5-10.5-4.5
				s-7.6,1.5-10.5,4.4s-4.3,7-4.3,12.2s1.4,9.3,4.3,12.3c2.9,3,6.4,4.5,10.5,4.5s7.6-1.5,10.5-4.5s4.3-7.1,4.3-12.2S192,54,189.2,51
				z"/>
			<path class="st2" d="M292.5,68.2h-46.9c0.3,4.2,1.7,7.4,4.1,9.6c2.4,2.2,5.3,3.3,8.8,3.3c5.2,0,8.8-2.2,10.8-6.5h22
				c-1.1,4.4-3.2,8.4-6.1,12s-6.6,6.3-11.1,8.4c-4.4,2-9.4,3-14.9,3c-6.6,0-12.5-1.4-17.7-4.2c-5.2-2.8-9.2-6.9-12.1-12.1
				c-2.9-5.2-4.4-11.4-4.4-18.4s1.4-13.2,4.3-18.4c2.9-5.2,6.9-9.3,12.1-12.1c5.2-2.8,11.1-4.2,17.8-4.2c6.5,0,12.4,1.4,17.4,4.1
				c5.1,2.7,9.1,6.7,11.9,11.7c2.9,5.1,4.3,11,4.3,17.8C292.9,64.1,292.8,66.1,292.5,68.2z M271.7,56.7c0-3.6-1.2-6.4-3.6-8.5
				s-5.5-3.1-9.1-3.1c-3.5,0-6.4,1-8.8,3c-2.4,2-3.9,4.9-4.4,8.6C245.8,56.7,271.7,56.7,271.7,56.7z"/>
			<path class="st2" d="M305.3,19.2c-2.3-2.1-3.5-4.8-3.5-7.9c0-3.2,1.2-5.9,3.5-8.1c2.3-2.1,5.3-3.2,8.9-3.2s6.5,1.1,8.8,3.2
				s3.5,4.8,3.5,8.1c0,3.1-1.2,5.8-3.5,7.9s-5.2,3.2-8.8,3.2C310.6,22.4,307.6,21.3,305.3,19.2z M324.5,29.4V97h-20.7V29.4H324.5z"
				/>
			<path class="st2" d="M369.9,77.6l14.7-48.2h22l-24,67.6H357l-24-67.6h22.2L369.9,77.6z"/>
			<path class="st2" d="M416.9,19.2c-2.3-2.1-3.5-4.8-3.5-7.9c0-3.2,1.2-5.9,3.5-8.1c2.3-2.1,5.3-3.2,8.9-3.2s6.5,1.1,8.8,3.2
				s3.5,4.8,3.5,8.1c0,3.1-1.2,5.8-3.5,7.9s-5.2,3.2-8.8,3.2C422.1,22.4,419.2,21.3,416.9,19.2z M436.1,29.4V97h-20.7V29.4H436.1z"
				/>
			<path class="st1" d="M480.2,31.4c3.6-1.9,7.8-2.9,12.5-2.9c5.6,0,10.6,1.4,15.1,4.2c4.5,2.8,8.1,6.9,10.7,12.1s3.9,11.3,3.9,18.3
				c0,6.9-1.3,13.1-3.9,18.3c-2.6,5.3-6.2,9.4-10.7,12.2c-4.5,2.9-9.6,4.3-15.1,4.3c-4.8,0-8.9-1-12.5-2.8c-3.6-1.9-6.3-4.4-8.4-7.6
				V97h-20.7V7.4h20.7V39C473.7,35.9,476.5,33.3,480.2,31.4z M497.1,50.9c-2.9-2.9-6.4-4.4-10.6-4.4c-4.1,0-7.6,1.5-10.5,4.5
				s-4.3,7.1-4.3,12.2c0,5.2,1.4,9.2,4.3,12.2s6.4,4.5,10.5,4.5s7.6-1.5,10.5-4.5s4.4-7.1,4.4-12.3S499.9,53.9,497.1,50.9z"/>
			<path class="st1" d="M600.1,29.4V97h-20.7v-9.2c-2.1,3-4.9,5.4-8.5,7.2c-3.6,1.8-7.6,2.7-11.9,2.7c-5.2,0-9.7-1.2-13.7-3.5
				s-7-5.6-9.2-10s-3.3-9.5-3.3-15.4V29.4h20.6v36.7c0,4.5,1.2,8,3.5,10.5s5.5,3.8,9.4,3.8c4,0,7.2-1.3,9.6-3.8
				c2.3-2.5,3.5-6,3.5-10.5V29.4H600.1z"/>
			<path class="st1" d="M626.7,95c-4.6-2-8.2-4.8-10.9-8.3s-4.2-7.4-4.5-11.8h20.5c0.2,2.3,1.3,4.2,3.3,5.7c1.9,1.5,4.3,2.2,7.1,2.2
				c2.6,0,4.6-0.5,6-1.5s2.1-2.3,2.1-3.9c0-1.9-1-3.4-3-4.3s-5.3-2-9.8-3.1c-4.8-1.1-8.9-2.3-12.1-3.6c-3.2-1.3-6-3.2-8.4-5.9
				c-2.3-2.7-3.5-6.4-3.5-11c0-3.9,1.1-7.4,3.2-10.6c2.1-3.2,5.3-5.7,9.4-7.6c4.2-1.9,9.1-2.8,14.8-2.8c8.5,0,15.2,2.1,20,6.3
				c4.9,4.2,7.7,9.8,8.4,16.7h-19.1c-0.3-2.3-1.4-4.2-3.1-5.6c-1.7-1.4-4-2.1-6.8-2.1c-2.4,0-4.3,0.5-5.6,1.4s-1.9,2.2-1.9,3.8
				c0,1.9,1,3.4,3.1,4.4s5.3,1.9,9.6,2.9c5,1.3,9.1,2.6,12.2,3.8c3.1,1.3,5.9,3.3,8.3,6.1c2.4,2.8,3.6,6.5,3.7,11.2
				c0,4-1.1,7.5-3.3,10.6s-5.4,5.6-9.6,7.3c-4.2,1.8-9,2.7-14.5,2.7C636.6,98,631.3,97,626.7,95z"/>
		</g>
	</g>
</g>
</svg>
